<svg xmlns="http://www.w3.org/2000/svg" width="640" height="360" viewBox="0 0 640 360" role="img" aria-labelledby="title desc">
  <title id="title">Premium cleaning service website preview</title>
  <desc id="desc">Modern cleaning landing page with a bright home hero, service cards, trust strip and blue-green branding.</desc>
  <defs>
    <linearGradient id="bg" x1="0" y1="0" x2="1" y2="1"><stop stop-color="#f7faf8"/><stop offset="1" stop-color="#e7eee8"/></linearGradient>
    <linearGradient id="room" x1="0" y1="0" x2="1" y2="1"><stop stop-color="#f8f4ec"/><stop offset=".55" stop-color="#e9dfcf"/><stop offset="1" stop-color="#d3c1aa"/></linearGradient>
    <linearGradient id="window" x1="0" y1="0" x2="0" y2="1"><stop stop-color="#dff3fb"/><stop offset="1" stop-color="#f8fbfc"/></linearGradient>
    <filter id="shadow" x="-20%" y="-20%" width="140%" height="140%"><feDropShadow dx="0" dy="10" stdDeviation="12" flood-color="#234256" flood-opacity=".22"/></filter>
  </defs>
  <rect width="640" height="360" fill="url(#bg)"/>
  <rect x="34" y="22" width="572" height="316" rx="19" fill="#fff" filter="url(#shadow)"/>
  <rect x="34" y="22" width="572" height="28" rx="19" fill="#fbfcfb"/>
  <circle cx="51" cy="36" r="4" fill="#ef6b66"/><circle cx="64" cy="36" r="4" fill="#efc04d"/><circle cx="77" cy="36" r="4" fill="#56bd75"/>
  <g transform="translate(59 65)"><path d="M9 16V4M9 9C5 8 3 5 3 1c4 0 7 2 8 6M9 12c4-1 6-4 6-8-4 0-7 2-8 6" fill="none" stroke="#637a58" stroke-width="1.3"/><text x="22" y="9" font-family="Georgia,serif" font-size="15" fill="#1a2a32">SPOTLESS</text><text x="23" y="18" font-family="Arial,sans-serif" font-size="5.5" letter-spacing="1.6" fill="#4f626b">CLEANING CO.</text></g>
  <g font-family="Arial,sans-serif" font-size="6.3" fill="#273842"><text x="254" y="75">Home</text><text x="295" y="75">Services</text><text x="342" y="75">About Us</text><text x="390" y="75">How It Works</text><text x="454" y="75">Contact</text></g>
  <text x="513" y="75" font-family="Arial,sans-serif" font-size="6" fill="#273842">(613) 555-0198</text><rect x="553" y="60" width="40" height="24" rx="4" fill="#0d5f91"/><text x="573" y="75" text-anchor="middle" font-family="Arial,sans-serif" font-size="5.5" font-weight="700" fill="#fff">BOOK</text>
  <rect x="47" y="93" width="546" height="141" fill="#fff"/>
  <text x="65" y="116" font-family="Arial,sans-serif" font-size="6.5" font-weight="700" letter-spacing="1" fill="#637a58">A CLEAN HOME. A CLEAR MIND.</text>
  <text x="64" y="149" font-family="Georgia,serif" font-size="31" fill="#10243a">Spotless spaces.</text>
  <text x="64" y="181" font-family="Georgia,serif" font-size="30" font-style="italic" fill="#0d5f91">Reliable care.</text>
  <text x="65" y="198" font-family="Arial,sans-serif" font-size="6.5" fill="#52616b">Flexible residential and commercial cleaning</text><text x="65" y="208" font-family="Arial,sans-serif" font-size="6.5" fill="#52616b">for Cornwall homes and workplaces.</text>
  <rect x="65" y="216" width="72" height="23" rx="4" fill="#0d5f91"/><text x="101" y="230" text-anchor="middle" font-family="Arial,sans-serif" font-size="6" font-weight="700" fill="#fff">GET A QUOTE</text><rect x="145" y="216" width="68" height="23" rx="4" fill="#fff" stroke="#0d5f91"/><text x="179" y="230" text-anchor="middle" font-family="Arial,sans-serif" font-size="6" font-weight="700" fill="#0d5f91">VIEW SERVICES</text>
  <rect x="243" y="93" width="350" height="141" fill="url(#room)"/>
  <rect x="459" y="101" width="104" height="73" fill="url(#window)"/><g stroke="#c0d0d7" stroke-width="1"><line x1="511" y1="101" x2="511" y2="174"/><line x1="459" y1="137" x2="563" y2="137"/></g>
  <rect x="266" y="168" width="243" height="55" rx="21" fill="#eee9df"/><rect x="287" y="153" width="97" height="52" rx="20" fill="#f6f3ed"/><rect x="385" y="153" width="104" height="52" rx="20" fill="#f9f7f2"/>
  <ellipse cx="376" cy="211" rx="56" ry="13" fill="#b99b78"/><rect x="333" y="197" width="87" height="12" rx="6" fill="#c8ad8e"/>
  <rect x="520" y="183" width="13" height="31" fill="#6f7c58"/><circle cx="526" cy="174" r="17" fill="#6b8a57"/><circle cx="537" cy="170" r="11" fill="#7d9869"/>
  <path d="M330 177c15-18 35-21 50-9" fill="none" stroke="#ddd4c8" stroke-width="13" stroke-linecap="round"/><path d="M420 178c13-16 34-18 52-7" fill="none" stroke="#e6ded2" stroke-width="13" stroke-linecap="round"/>
  <rect x="47" y="234" width="546" height="42" fill="#f7faf7"/><g font-family="Arial,sans-serif" fill="#40535b"><text x="76" y="251" font-size="6.2" font-weight="700">✓ CONSISTENT SERVICE</text><text x="207" y="251" font-size="6.2" font-weight="700">♧ ECO-CONSCIOUS</text><text x="338" y="251" font-size="6.2" font-weight="700">◷ FLEXIBLE SCHEDULING</text><text x="474" y="251" font-size="6.2" font-weight="700">⌂ CORNWALL LOCAL</text><text x="76" y="261" font-size="5.3">Clear scope every visit</text><text x="207" y="261" font-size="5.3">Gentler product options</text><text x="338" y="261" font-size="5.3">Weekly to monthly</text><text x="474" y="261" font-size="5.3">Homes and workplaces</text></g>
  <text x="320" y="292" text-anchor="middle" font-family="Arial,sans-serif" font-size="6" font-weight="700" letter-spacing="1" fill="#637a58">OUR SERVICES</text><text x="320" y="307" text-anchor="middle" font-family="Georgia,serif" font-size="15" fill="#10243a">Tailored cleaning for every kind of space.</text>
  <g transform="translate(59 315)">
    <rect width="116" height="14" rx="3" fill="#edf2ed"/><rect x="125" width="116" height="14" rx="3" fill="#edf2ed"/><rect x="250" width="116" height="14" rx="3" fill="#edf2ed"/><rect x="375" width="116" height="14" rx="3" fill="#edf2ed"/>
    <text x="58" y="10" text-anchor="middle" font-family="Arial,sans-serif" font-size="5.5" fill="#40535b">RECURRING</text><text x="183" y="10" text-anchor="middle" font-family="Arial,sans-serif" font-size="5.5" fill="#40535b">DEEP CLEAN</text><text x="308" y="10" text-anchor="middle" font-family="Arial,sans-serif" font-size="5.5" fill="#40535b">MOVE CLEAN</text><text x="433" y="10" text-anchor="middle" font-family="Arial,sans-serif" font-size="5.5" fill="#40535b">COMMERCIAL</text>
  </g>
</svg>
